{
	"asset":{
		"generator":"Khronos glTF Blender I/O v3.6.28",
		"version":"2.0"
	},
	"extensionsUsed":[
		"KHR_materials_specular",
		"KHR_materials_ior"
	],
	"scene":0,
	"scenes":[
		{
			"name":"Scene",
			"nodes":[
				0
			]
		}
	],
	"nodes":[
		{
			"mesh":0,
			"name":"Lobo_Feroz",
			"rotation":[
				0.7071068286895752,
				0,
				0,
				0.7071068286895752
			]
		}
	],
	"materials":[
		{
			"doubleSided":true,
			"extensions":{
				"KHR_materials_specular":{
					"specularColorFactor":[
						0.474271529955476,
						0.474271529955476,
						0.474271529955476
					]
				},
				"KHR_materials_ior":{
					"ior":1.4500000476837158
				}
			},
			"name":"Material.003",
			"pbrMetallicRoughness":{
				"baseColorFactor":[
					0,
					0,
					0,
					1
				],
				"metallicFactor":0,
				"roughnessFactor":0.699999988079071
			}
		},
		{
			"doubleSided":true,
			"extensions":{
				"KHR_materials_specular":{
					"specularColorFactor":[
						0.474271529955476,
						0.474271529955476,
						0.474271529955476
					]
				},
				"KHR_materials_ior":{
					"ior":1.4500000476837158
				}
			},
			"name":"Material.006",
			"pbrMetallicRoughness":{
				"baseColorFactor":[
					0.10702300071716309,
					0.09530699998140335,
					0.0930590033531189,
					1
				],
				"metallicFactor":0,
				"roughnessFactor":0.699999988079071
			}
		},
		{
			"doubleSided":true,
			"name":"Material.010",
			"pbrMetallicRoughness":{
				"baseColorFactor":[
					0.800000011920929,
					0.800000011920929,
					0.800000011920929,
					1
				],
				"metallicFactor":0,
				"roughnessFactor":0.5
			}
		},
		{
			"doubleSided":true,
			"extensions":{
				"KHR_materials_specular":{
					"specularColorFactor":[
						0.474271529955476,
						0.474271529955476,
						0.474271529955476
					]
				},
				"KHR_materials_ior":{
					"ior":1.4500000476837158
				}
			},
			"name":"Material.001",
			"pbrMetallicRoughness":{
				"baseColorFactor":[
					0.14702700078487396,
					0.13013699650764465,
					0.12213899940252304,
					1
				],
				"metallicFactor":0,
				"roughnessFactor":0.699999988079071
			}
		},
		{
			"doubleSided":true,
			"extensions":{
				"KHR_materials_specular":{
					"specularColorFactor":[
						1.897086119821904,
						1.897086119821904,
						1.897086119821904
					]
				},
				"KHR_materials_ior":{
					"ior":1.4500000476837158
				}
			},
			"name":"None",
			"pbrMetallicRoughness":{
				"baseColorFactor":[
					0.800000011920929,
					0.800000011920929,
					0.800000011920929,
					1
				],
				"metallicFactor":0,
				"roughnessFactor":0.2928932309150696
			}
		},
		{
			"doubleSided":true,
			"extensions":{
				"KHR_materials_specular":{
					"specularColorFactor":[
						0.474271529955476,
						0.474271529955476,
						0.474271529955476
					]
				},
				"KHR_materials_ior":{
					"ior":1.4500000476837158
				}
			},
			"name":"Material.005",
			"pbrMetallicRoughness":{
				"baseColorFactor":[
					0,
					0,
					0,
					1
				],
				"metallicFactor":0,
				"roughnessFactor":0.699999988079071
			}
		},
		{
			"doubleSided":true,
			"name":"Material.007",
			"pbrMetallicRoughness":{
				"baseColorFactor":[
					0.18782100081443787,
					0.16513200104236603,
					0.15592600405216217,
					1
				],
				"metallicFactor":0,
				"roughnessFactor":0.5
			}
		},
		{
			"doubleSided":true,
			"extensions":{
				"KHR_materials_specular":{
					"specularColorFactor":[
						0.474271529955476,
						0.474271529955476,
						0.474271529955476
					]
				},
				"KHR_materials_ior":{
					"ior":1.4500000476837158
				}
			},
			"name":"Material.004",
			"pbrMetallicRoughness":{
				"baseColorFactor":[
					0,
					0,
					0,
					1
				],
				"metallicFactor":0,
				"roughnessFactor":0.699999988079071
			}
		},
		{
			"doubleSided":true,
			"extensions":{
				"KHR_materials_specular":{
					"specularColorFactor":[
						0.474271529955476,
						0.474271529955476,
						0.474271529955476
					]
				},
				"KHR_materials_ior":{
					"ior":1.4500000476837158
				}
			},
			"name":"Material.008",
			"pbrMetallicRoughness":{
				"baseColorFactor":[
					0.05612900108098984,
					0.05612900108098984,
					0.06300999969244003,
					1
				],
				"metallicFactor":0,
				"roughnessFactor":0.699999988079071
			}
		},
		{
			"doubleSided":true,
			"name":"Material.009",
			"pbrMetallicRoughness":{
				"baseColorFactor":[
					0.800000011920929,
					0.800000011920929,
					0.800000011920929,
					1
				],
				"metallicFactor":0,
				"roughnessFactor":0.5
			}
		},
		{
			"doubleSided":true,
			"extensions":{
				"KHR_materials_specular":{
					"specularColorFactor":[
						0.474271529955476,
						0.474271529955476,
						0.474271529955476
					]
				},
				"KHR_materials_ior":{
					"ior":1.4500000476837158
				}
			},
			"name":"Material.013",
			"pbrMetallicRoughness":{
				"baseColorFactor":[
					0.20189997553825378,
					0.03725750371813774,
					0.04608982056379318,
					1
				],
				"metallicFactor":0,
				"roughnessFactor":0.699999988079071
			}
		}
	],
	"meshes":[
		{
			"name":"Boca_NurbsPath",
			"primitives":[
				{
					"attributes":{
						"COLOR_0":0,
						"POSITION":1,
						"NORMAL":2,
						"TEXCOORD_0":3
					},
					"indices":4,
					"material":0
				},
				{
					"attributes":{
						"COLOR_0":5,
						"POSITION":6,
						"NORMAL":7,
						"TEXCOORD_0":8
					},
					"indices":9,
					"material":1
				},
				{
					"attributes":{
						"COLOR_0":10,
						"POSITION":11,
						"NORMAL":12,
						"TEXCOORD_0":13
					},
					"indices":14,
					"material":2
				},
				{
					"attributes":{
						"COLOR_0":15,
						"POSITION":16,
						"NORMAL":17,
						"TEXCOORD_0":18
					},
					"indices":19,
					"material":3
				},
				{
					"attributes":{
						"COLOR_0":20,
						"POSITION":21,
						"NORMAL":22,
						"TEXCOORD_0":23
					},
					"indices":24,
					"material":4
				},
				{
					"attributes":{
						"COLOR_0":25,
						"POSITION":26,
						"NORMAL":27,
						"TEXCOORD_0":28
					},
					"indices":29,
					"material":5
				},
				{
					"attributes":{
						"COLOR_0":30,
						"POSITION":31,
						"NORMAL":32,
						"TEXCOORD_0":33
					},
					"indices":34,
					"material":6
				},
				{
					"attributes":{
						"COLOR_0":35,
						"POSITION":36,
						"NORMAL":37,
						"TEXCOORD_0":38
					},
					"indices":39,
					"material":7
				},
				{
					"attributes":{
						"COLOR_0":40,
						"POSITION":41,
						"NORMAL":42,
						"TEXCOORD_0":43
					},
					"indices":44,
					"material":8
				},
				{
					"attributes":{
						"COLOR_0":45,
						"POSITION":46,
						"NORMAL":47,
						"TEXCOORD_0":48
					},
					"indices":49,
					"material":9
				},
				{
					"attributes":{
						"COLOR_0":50,
						"POSITION":51,
						"NORMAL":52,
						"TEXCOORD_0":53
					},
					"indices":54,
					"material":10
				}
			]
		}
	],
	"accessors":[
		{
			"bufferView":0,
			"componentType":5123,
			"count":624,
			"normalized":true,
			"type":"VEC4"
		},
		{
			"bufferView":1,
			"componentType":5126,
			"count":624,
			"max":[
				0.2878740131855011,
				0.8784350156784058,
				-2.749044895172119
			],
			"min":[
				-0.29039400815963745,
				0.8228240013122559,
				-2.880434989929199
			],
			"type":"VEC3"
		},
		{
			"bufferView":2,
			"componentType":5126,
			"count":624,
			"type":"VEC3"
		},
		{
			"bufferView":3,
			"componentType":5126,
			"count":624,
			"type":"VEC2"
		},
		{
			"bufferView":4,
			"componentType":5123,
			"count":3384,
			"type":"SCALAR"
		},
		{
			"bufferView":5,
			"componentType":5123,
			"count":3194,
			"normalized":true,
			"type":"VEC4"
		},
		{
			"bufferView":6,
			"componentType":5126,
			"count":3194,
			"max":[
				1.1723719835281372,
				0.7341939806938171,
				-0.13936999440193176
			],
			"min":[
				-1.1723719835281372,
				-0.7341939806938171,
				-2.540537118911743
			],
			"type":"VEC3"
		},
		{
			"bufferView":7,
			"componentType":5126,
			"count":3194,
			"type":"VEC3"
		},
		{
			"bufferView":8,
			"componentType":5126,
			"count":3194,
			"type":"VEC2"
		},
		{
			"bufferView":9,
			"componentType":5123,
			"count":18432,
			"type":"SCALAR"
		},
		{
			"bufferView":10,
			"componentType":5123,
			"count":1088,
			"normalized":true,
			"type":"VEC4"
		},
		{
			"bufferView":11,
			"componentType":5126,
			"count":1088,
			"max":[
				1.1631770133972168,
				0.2867859899997711,
				-0.09344399720430374
			],
			"min":[
				-1.1631770133972168,
				-0.2867859899997711,
				-1.1635979413986206
			],
			"type":"VEC3"
		},
		{
			"bufferView":12,
			"componentType":5126,
			"count":1088,
			"type":"VEC3"
		},
		{
			"bufferView":13,
			"componentType":5126,
			"count":1088,
			"type":"VEC2"
		},
		{
			"bufferView":14,
			"componentType":5123,
			"count":5376,
			"type":"SCALAR"
		},
		{
			"bufferView":15,
			"componentType":5123,
			"count":19394,
			"normalized":true,
			"type":"VEC4"
		},
		{
			"bufferView":16,
			"componentType":5126,
			"count":19394,
			"max":[
				1.4152250289916992,
				0.8816189765930176,
				-2.327181100845337
			],
			"min":[
				-1.4561469554901123,
				-1.531527042388916,
				-4.825552940368652
			],
			"type":"VEC3"
		},
		{
			"bufferView":17,
			"componentType":5126,
			"count":19394,
			"type":"VEC3"
		},
		{
			"bufferView":18,
			"componentType":5126,
			"count":19394,
			"type":"VEC2"
		},
		{
			"bufferView":19,
			"componentType":5123,
			"count":113592,
			"type":"SCALAR"
		},
		{
			"bufferView":20,
			"componentType":5123,
			"count":6774,
			"normalized":true,
			"type":"VEC4"
		},
		{
			"bufferView":21,
			"componentType":5126,
			"count":6774,
			"max":[
				1.0183990001678467,
				0.9328359961509705,
				-1.0174909830093384
			],
			"min":[
				-1.0455420017242432,
				0.04318299889564514,
				-4.669951915740967
			],
			"type":"VEC3"
		},
		{
			"bufferView":22,
			"componentType":5126,
			"count":6774,
			"type":"VEC3"
		},
		{
			"bufferView":23,
			"componentType":5126,
			"count":6774,
			"type":"VEC2"
		},
		{
			"bufferView":24,
			"componentType":5123,
			"count":40032,
			"type":"SCALAR"
		},
		{
			"bufferView":25,
			"componentType":5123,
			"count":1938,
			"normalized":true,
			"type":"VEC4"
		},
		{
			"bufferView":26,
			"componentType":5126,
			"count":1938,
			"max":[
				0.43695101141929626,
				0.856440007686615,
				-3.0603110790252686
			],
			"min":[
				-0.4799250066280365,
				0.7473049759864807,
				-3.3060989379882812
			],
			"type":"VEC3"
		},
		{
			"bufferView":27,
			"componentType":5126,
			"count":1938,
			"type":"VEC3"
		},
		{
			"bufferView":28,
			"componentType":5126,
			"count":1938,
			"type":"VEC2"
		},
		{
			"bufferView":29,
			"componentType":5123,
			"count":10752,
			"type":"SCALAR"
		},
		{
			"bufferView":30,
			"componentType":5123,
			"count":882,
			"normalized":true,
			"type":"VEC4"
		},
		{
			"bufferView":31,
			"componentType":5126,
			"count":882,
			"max":[
				0.5550429821014404,
				0.8658900260925293,
				-3.3864939212799072
			],
			"min":[
				-0.5980169773101807,
				0.7378550171852112,
				-3.559688091278076
			],
			"type":"VEC3"
		},
		{
			"bufferView":32,
			"componentType":5126,
			"count":882,
			"type":"VEC3"
		},
		{
			"bufferView":33,
			"componentType":5126,
			"count":882,
			"type":"VEC2"
		},
		{
			"bufferView":34,
			"componentType":5123,
			"count":4608,
			"type":"SCALAR"
		},
		{
			"bufferView":35,
			"componentType":5123,
			"count":441,
			"normalized":true,
			"type":"VEC4"
		},
		{
			"bufferView":36,
			"componentType":5126,
			"count":441,
			"max":[
				0.08067899942398071,
				0.9734249711036682,
				-2.9225449562072754
			],
			"min":[
				-0.11644300073385239,
				0.8680729866027832,
				-3.0278968811035156
			],
			"type":"VEC3"
		},
		{
			"bufferView":37,
			"componentType":5126,
			"count":441,
			"type":"VEC3"
		},
		{
			"bufferView":38,
			"componentType":5126,
			"count":441,
			"type":"VEC2"
		},
		{
			"bufferView":39,
			"componentType":5123,
			"count":2304,
			"type":"SCALAR"
		},
		{
			"bufferView":40,
			"componentType":5123,
			"count":926,
			"normalized":true,
			"type":"VEC4"
		},
		{
			"bufferView":41,
			"componentType":5126,
			"count":926,
			"max":[
				1.4096540212631226,
				-0.36621999740600586,
				-1.0406440496444702
			],
			"min":[
				-0.3768720030784607,
				-1.7543729543685913,
				-2.3640329837799072
			],
			"type":"VEC3"
		},
		{
			"bufferView":42,
			"componentType":5126,
			"count":926,
			"type":"VEC3"
		},
		{
			"bufferView":43,
			"componentType":5126,
			"count":926,
			"type":"VEC2"
		},
		{
			"bufferView":44,
			"componentType":5123,
			"count":4992,
			"type":"SCALAR"
		},
		{
			"bufferView":45,
			"componentType":5123,
			"count":387,
			"normalized":true,
			"type":"VEC4"
		},
		{
			"bufferView":46,
			"componentType":5126,
			"count":387,
			"max":[
				1.612396001815796,
				-1.4859780073165894,
				-2.211958885192871
			],
			"min":[
				1.1585149765014648,
				-1.6720999479293823,
				-2.5571401119232178
			],
			"type":"VEC3"
		},
		{
			"bufferView":47,
			"componentType":5126,
			"count":387,
			"type":"VEC3"
		},
		{
			"bufferView":48,
			"componentType":5126,
			"count":387,
			"type":"VEC2"
		},
		{
			"bufferView":49,
			"componentType":5123,
			"count":1920,
			"type":"SCALAR"
		},
		{
			"bufferView":50,
			"componentType":5123,
			"count":130,
			"normalized":true,
			"type":"VEC4"
		},
		{
			"bufferView":51,
			"componentType":5126,
			"count":130,
			"max":[
				1.4480589628219604,
				1.529858946800232,
				0.13006100058555603
			],
			"min":[
				-1.4889819622039795,
				-1.407181978225708,
				-0.10169000178575516
			],
			"type":"VEC3"
		},
		{
			"bufferView":52,
			"componentType":5126,
			"count":130,
			"type":"VEC3"
		},
		{
			"bufferView":53,
			"componentType":5126,
			"count":130,
			"type":"VEC2"
		},
		{
			"bufferView":54,
			"componentType":5123,
			"count":372,
			"type":"SCALAR"
		}
	],
	"bufferViews":[
		{
			"buffer":0,
			"byteLength":4992,
			"byteOffset":0,
			"target":34962
		},
		{
			"buffer":0,
			"byteLength":7488,
			"byteOffset":4992,
			"target":34962
		},
		{
			"buffer":0,
			"byteLength":7488,
			"byteOffset":12480,
			"target":34962
		},
		{
			"buffer":0,
			"byteLength":4992,
			"byteOffset":19968,
			"target":34962
		},
		{
			"buffer":0,
			"byteLength":6768,
			"byteOffset":24960,
			"target":34963
		},
		{
			"buffer":0,
			"byteLength":25552,
			"byteOffset":31728,
			"target":34962
		},
		{
			"buffer":0,
			"byteLength":38328,
			"byteOffset":57280,
			"target":34962
		},
		{
			"buffer":0,
			"byteLength":38328,
			"byteOffset":95608,
			"target":34962
		},
		{
			"buffer":0,
			"byteLength":25552,
			"byteOffset":133936,
			"target":34962
		},
		{
			"buffer":0,
			"byteLength":36864,
			"byteOffset":159488,
			"target":34963
		},
		{
			"buffer":0,
			"byteLength":8704,
			"byteOffset":196352,
			"target":34962
		},
		{
			"buffer":0,
			"byteLength":13056,
			"byteOffset":205056,
			"target":34962
		},
		{
			"buffer":0,
			"byteLength":13056,
			"byteOffset":218112,
			"target":34962
		},
		{
			"buffer":0,
			"byteLength":8704,
			"byteOffset":231168,
			"target":34962
		},
		{
			"buffer":0,
			"byteLength":10752,
			"byteOffset":239872,
			"target":34963
		},
		{
			"buffer":0,
			"byteLength":155152,
			"byteOffset":250624,
			"target":34962
		},
		{
			"buffer":0,
			"byteLength":232728,
			"byteOffset":405776,
			"target":34962
		},
		{
			"buffer":0,
			"byteLength":232728,
			"byteOffset":638504,
			"target":34962
		},
		{
			"buffer":0,
			"byteLength":155152,
			"byteOffset":871232,
			"target":34962
		},
		{
			"buffer":0,
			"byteLength":227184,
			"byteOffset":1026384,
			"target":34963
		},
		{
			"buffer":0,
			"byteLength":54192,
			"byteOffset":1253568,
			"target":34962
		},
		{
			"buffer":0,
			"byteLength":81288,
			"byteOffset":1307760,
			"target":34962
		},
		{
			"buffer":0,
			"byteLength":81288,
			"byteOffset":1389048,
			"target":34962
		},
		{
			"buffer":0,
			"byteLength":54192,
			"byteOffset":1470336,
			"target":34962
		},
		{
			"buffer":0,
			"byteLength":80064,
			"byteOffset":1524528,
			"target":34963
		},
		{
			"buffer":0,
			"byteLength":15504,
			"byteOffset":1604592,
			"target":34962
		},
		{
			"buffer":0,
			"byteLength":23256,
			"byteOffset":1620096,
			"target":34962
		},
		{
			"buffer":0,
			"byteLength":23256,
			"byteOffset":1643352,
			"target":34962
		},
		{
			"buffer":0,
			"byteLength":15504,
			"byteOffset":1666608,
			"target":34962
		},
		{
			"buffer":0,
			"byteLength":21504,
			"byteOffset":1682112,
			"target":34963
		},
		{
			"buffer":0,
			"byteLength":7056,
			"byteOffset":1703616,
			"target":34962
		},
		{
			"buffer":0,
			"byteLength":10584,
			"byteOffset":1710672,
			"target":34962
		},
		{
			"buffer":0,
			"byteLength":10584,
			"byteOffset":1721256,
			"target":34962
		},
		{
			"buffer":0,
			"byteLength":7056,
			"byteOffset":1731840,
			"target":34962
		},
		{
			"buffer":0,
			"byteLength":9216,
			"byteOffset":1738896,
			"target":34963
		},
		{
			"buffer":0,
			"byteLength":3528,
			"byteOffset":1748112,
			"target":34962
		},
		{
			"buffer":0,
			"byteLength":5292,
			"byteOffset":1751640,
			"target":34962
		},
		{
			"buffer":0,
			"byteLength":5292,
			"byteOffset":1756932,
			"target":34962
		},
		{
			"buffer":0,
			"byteLength":3528,
			"byteOffset":1762224,
			"target":34962
		},
		{
			"buffer":0,
			"byteLength":4608,
			"byteOffset":1765752,
			"target":34963
		},
		{
			"buffer":0,
			"byteLength":7408,
			"byteOffset":1770360,
			"target":34962
		},
		{
			"buffer":0,
			"byteLength":11112,
			"byteOffset":1777768,
			"target":34962
		},
		{
			"buffer":0,
			"byteLength":11112,
			"byteOffset":1788880,
			"target":34962
		},
		{
			"buffer":0,
			"byteLength":7408,
			"byteOffset":1799992,
			"target":34962
		},
		{
			"buffer":0,
			"byteLength":9984,
			"byteOffset":1807400,
			"target":34963
		},
		{
			"buffer":0,
			"byteLength":3096,
			"byteOffset":1817384,
			"target":34962
		},
		{
			"buffer":0,
			"byteLength":4644,
			"byteOffset":1820480,
			"target":34962
		},
		{
			"buffer":0,
			"byteLength":4644,
			"byteOffset":1825124,
			"target":34962
		},
		{
			"buffer":0,
			"byteLength":3096,
			"byteOffset":1829768,
			"target":34962
		},
		{
			"buffer":0,
			"byteLength":3840,
			"byteOffset":1832864,
			"target":34963
		},
		{
			"buffer":0,
			"byteLength":1040,
			"byteOffset":1836704,
			"target":34962
		},
		{
			"buffer":0,
			"byteLength":1560,
			"byteOffset":1837744,
			"target":34962
		},
		{
			"buffer":0,
			"byteLength":1560,
			"byteOffset":1839304,
			"target":34962
		},
		{
			"buffer":0,
			"byteLength":1040,
			"byteOffset":1840864,
			"target":34962
		},
		{
			"buffer":0,
			"byteLength":744,
			"byteOffset":1841904,
			"target":34963
		}
	],
	"buffers":[
		{
			"byteLength":1842648,
			"uri":"data:application/octet-stream;base64,"
		}
	]
}
