{
	"asset":{
		"generator":"Khronos glTF Blender I/O v3.6.28",
		"version":"2.0"
	},
	"scene":0,
	"scenes":[
		{
			"name":"Scene",
			"nodes":[
				0
			]
		}
	],
	"nodes":[
		{
			"mesh":0,
			"name":"U",
			"rotation":[
				0.6432641744613647,
				0,
				0,
				0.7656443119049072
			],
			"scale":[
				1.640439510345459,
				1.640439510345459,
				1.640439510345459
			],
			"translation":[
				0.42941343784332275,
				-0.008054912090301514,
				-0.0035749105736613274
			]
		}
	],
	"materials":[
		{
			"doubleSided":true,
			"name":"Material.002",
			"pbrMetallicRoughness":{
				"baseColorFactor":[
					0.05126991122961044,
					0.3898200988769531,
					0.8000000715255737,
					1
				],
				"metallicFactor":0.8611111044883728,
				"roughnessFactor":0.2638888955116272
			}
		}
	],
	"meshes":[
		{
			"name":"Text.001",
			"primitives":[
				{
					"attributes":{
						"POSITION":0,
						"NORMAL":1
					},
					"indices":2,
					"material":0
				}
			]
		}
	],
	"accessors":[
		{
			"bufferView":0,
			"componentType":5126,
			"count":14388,
			"max":[
				0.5644643902778625,
				0.24592579901218414,
				0.02186029590666294
			],
			"min":[
				0.035330429673194885,
				-0.016673384234309196,
				-0.5310286283493042
			],
			"type":"VEC3"
		},
		{
			"bufferView":1,
			"componentType":5126,
			"count":14388,
			"type":"VEC3"
		},
		{
			"bufferView":2,
			"componentType":5123,
			"count":85488,
			"type":"SCALAR"
		}
	],
	"bufferViews":[
		{
			"buffer":0,
			"byteLength":172656,
			"byteOffset":0,
			"target":34962
		},
		{
			"buffer":0,
			"byteLength":172656,
			"byteOffset":172656,
			"target":34962
		},
		{
			"buffer":0,
			"byteLength":170976,
			"byteOffset":345312,
			"target":34963
		}
	],
	"buffers":[
		{
			"byteLength":516288,
			"uri":"data:application/octet-stream;base64,"
		}
	]
}
