{
	"asset":{
		"generator":"Khronos glTF Blender I/O v3.6.28",
		"version":"2.0"
	},
	"scene":0,
	"scenes":[
		{
			"name":"Scene",
			"nodes":[
				0
			]
		}
	],
	"nodes":[
		{
			"mesh":0,
			"name":"P",
			"rotation":[
				0.6432641744613647,
				0,
				0,
				0.7656443119049072
			],
			"scale":[
				1.640439510345459,
				1.640439510345459,
				1.640439510345459
			],
			"translation":[
				3.4059808254241943,
				-0.008054912090301514,
				-0.0035749105736613274
			]
		}
	],
	"materials":[
		{
			"doubleSided":true,
			"name":"Material.002",
			"pbrMetallicRoughness":{
				"baseColorFactor":[
					0.05126991122961044,
					0.3898200988769531,
					0.8000000715255737,
					1
				],
				"metallicFactor":0.8611111044883728,
				"roughnessFactor":0.2638888955116272
			}
		}
	],
	"meshes":[
		{
			"name":"Text.004",
			"primitives":[
				{
					"attributes":{
						"POSITION":0,
						"NORMAL":1
					},
					"indices":2,
					"material":0
				}
			]
		}
	],
	"accessors":[
		{
			"bufferView":0,
			"componentType":5126,
			"count":12595,
			"max":[
				0.4933111369609833,
				0.2599034905433655,
				0.015750974416732788
			],
			"min":[
				0.03535455837845802,
				-0.01606234721839428,
				-0.5316340327262878
			],
			"type":"VEC3"
		},
		{
			"bufferView":1,
			"componentType":5126,
			"count":12595,
			"type":"VEC3"
		},
		{
			"bufferView":2,
			"componentType":5123,
			"count":75072,
			"type":"SCALAR"
		}
	],
	"bufferViews":[
		{
			"buffer":0,
			"byteLength":151140,
			"byteOffset":0,
			"target":34962
		},
		{
			"buffer":0,
			"byteLength":151140,
			"byteOffset":151140,
			"target":34962
		},
		{
			"buffer":0,
			"byteLength":150144,
			"byteOffset":302280,
			"target":34963
		}
	],
	"buffers":[
		{
			"byteLength":452424,
			"uri":"data:application/octet-stream;base64,"
		}
	]
}
