{
	"asset":{
		"generator":"Khronos glTF Blender I/O v3.6.28",
		"version":"2.0"
	},
	"scene":0,
	"scenes":[
		{
			"name":"Scene",
			"nodes":[
				0
			]
		}
	],
	"nodes":[
		{
			"mesh":0,
			"name":"B",
			"rotation":[
				0.6432641744613647,
				0,
				0,
				0.7656443119049072
			],
			"scale":[
				1.640439510345459,
				1.640439510345459,
				1.640439510345459
			],
			"translation":[
				-0.7917423248291016,
				-0.008054912090301514,
				-0.0035749105736613274
			]
		}
	],
	"materials":[
		{
			"doubleSided":true,
			"name":"Material.002",
			"pbrMetallicRoughness":{
				"baseColorFactor":[
					0.05126991122961044,
					0.3898200988769531,
					0.8000000715255737,
					1
				],
				"metallicFactor":0.8611111044883728,
				"roughnessFactor":0.2638888955116272
			}
		}
	],
	"meshes":[
		{
			"name":"Text",
			"primitives":[
				{
					"attributes":{
						"POSITION":0,
						"NORMAL":1
					},
					"indices":2,
					"material":0
				}
			]
		}
	],
	"accessors":[
		{
			"bufferView":0,
			"componentType":5126,
			"count":16515,
			"max":[
				0.547158420085907,
				0.27105987071990967,
				0.03460555151104927
			],
			"min":[
				0.0200900137424469,
				-0.02769380435347557,
				-0.5488482713699341
			],
			"type":"VEC3"
		},
		{
			"bufferView":1,
			"componentType":5126,
			"count":16515,
			"type":"VEC3"
		},
		{
			"bufferView":2,
			"componentType":5123,
			"count":98496,
			"type":"SCALAR"
		}
	],
	"bufferViews":[
		{
			"buffer":0,
			"byteLength":198180,
			"byteOffset":0,
			"target":34962
		},
		{
			"buffer":0,
			"byteLength":198180,
			"byteOffset":198180,
			"target":34962
		},
		{
			"buffer":0,
			"byteLength":196992,
			"byteOffset":396360,
			"target":34963
		}
	],
	"buffers":[
		{
			"byteLength":593352,
			"uri":"data:application/octet-stream;base64,"
		}
	]
}
