{
	"asset":{
		"generator":"Khronos glTF Blender I/O v3.6.28",
		"version":"2.0"
	},
	"scene":0,
	"scenes":[
		{
			"name":"Scene",
			"nodes":[
				0
			]
		}
	],
	"nodes":[
		{
			"mesh":0,
			"name":"A",
			"rotation":[
				0.6432641744613647,
				0,
				0,
				0.7656443119049072
			],
			"scale":[
				1.640439510345459,
				1.640439510345459,
				1.640439510345459
			],
			"translation":[
				1.9013421535491943,
				0.024164734408259392,
				-0.009214767254889011
			]
		}
	],
	"materials":[
		{
			"doubleSided":true,
			"name":"Material.002",
			"pbrMetallicRoughness":{
				"baseColorFactor":[
					0.05126991122961044,
					0.3898200988769531,
					0.8000000715255737,
					1
				],
				"metallicFactor":0.8611111044883728,
				"roughnessFactor":0.2638888955116272
			}
		}
	],
	"meshes":[
		{
			"name":"Text.003",
			"primitives":[
				{
					"attributes":{
						"POSITION":0,
						"NORMAL":1
					},
					"indices":2,
					"material":0
				}
			]
		}
	],
	"accessors":[
		{
			"bufferView":0,
			"componentType":5126,
			"count":14118,
			"max":[
				0.563784122467041,
				0.2470795214176178,
				0.018026357516646385
			],
			"min":[
				0.005394821986556053,
				-0.017689717933535576,
				-0.5317299962043762
			],
			"type":"VEC3"
		},
		{
			"bufferView":1,
			"componentType":5126,
			"count":14118,
			"type":"VEC3"
		},
		{
			"bufferView":2,
			"componentType":5123,
			"count":83904,
			"type":"SCALAR"
		}
	],
	"bufferViews":[
		{
			"buffer":0,
			"byteLength":169416,
			"byteOffset":0,
			"target":34962
		},
		{
			"buffer":0,
			"byteLength":169416,
			"byteOffset":169416,
			"target":34962
		},
		{
			"buffer":0,
			"byteLength":167808,
			"byteOffset":338832,
			"target":34963
		}
	],
	"buffers":[
		{
			"byteLength":506640,
			"uri":"data:application/octet-stream;base64,"
		}
	]
}
